<svg width="195" height="24" viewBox="0 0 195 24" fill="none" xmlns="http://www.w3.org/2000/svg">
<path d="M185.264 4.1376H185.398C185.702 5.6544 185.835 6.344 186.146 7.4464L187.94 14.896H182.678L184.476 7.4464C184.74 6.3456 184.915 5.6544 185.264 4.1376ZM190.044 23.6784H195L188.775 0.4576H182.02L175.75 23.6784H180.442L181.844 18.4832H188.641L190.044 23.6784ZM165.007 24C167.726 24 170.357 23.312 172.069 22.576V10.944H164.438V14.6672H167.552V19.8608C166.981 20.2304 166.015 20.4608 164.965 20.4608C161.719 20.4608 160.71 18.76 160.71 13.8416V10.8496C160.71 5.976 161.673 3.5856 164.658 3.5856C166.717 3.5856 167.423 5.056 167.468 6.6208H172.159C172.109 2.5296 169.306 0 164.656 0C158.163 0 155.799 3.9536 155.799 10.3472V13.7504C155.753 20.6912 157.993 24 165.007 24ZM143.039 4.1376H143.173C143.479 5.6544 143.611 6.344 143.916 7.4464L145.718 14.896H140.453L142.249 7.4464C142.513 6.3456 142.688 5.6544 143.039 4.1376ZM147.818 23.6784H152.77L146.549 0.4576H139.792L133.525 23.6784H138.215L139.618 18.4832H146.415L147.818 23.6784ZM124.137 23.6784H128.831V0.4576H124.137V23.6784ZM111.246 24C116.462 24 119.006 21.4688 119.137 16.7392H114.404C114.316 19.0368 113.612 20.4608 111.379 20.4608C108.837 20.4608 107.873 18.5776 107.873 13.7504V10.3472C107.873 5.472 108.837 3.6352 111.379 3.6352C113.749 3.6352 114.142 5.2912 114.229 7.0384H118.962C118.918 2.992 116.726 0.0944 111.248 0.0944C105.151 0.0944 102.917 4.096 102.917 10.3472V13.7504C102.917 20.048 105.149 24 111.246 24ZM79.4991 23.6784H83.6657V10.2064C83.6503 8.1823 83.5909 6.15884 83.4874 4.1376H83.623C84.2796 6.528 84.63 7.7696 85.2439 9.5616L90.1098 23.6784H96.9516V0.4576H92.785V13.3824C92.785 15.08 92.8307 17.336 92.8733 19.4944H92.7423C92.3919 17.8832 92.0811 16.2736 91.161 13.6544L86.6029 0.4576H79.4579V23.6784H79.4991ZM60.3784 23.6784H73.1387V19.9552H65.0721V13.5152H72.3922V9.7488H65.0721V4.1376H72.834V0.4128H60.3784V23.6784ZM43.2352 23.6784H55.5125V19.9552H47.9273V0.4576H43.2352V23.6784ZM28.6772 4.1376H28.8097C29.1144 5.6544 29.2485 6.344 29.5547 7.4464L31.3523 14.896H26.0919L27.8911 7.4464C28.1516 6.3456 28.3283 5.6544 28.6772 4.1376ZM33.4577 23.6784H38.4135L32.1857 0.4576H25.4338L19.1618 23.6784H23.8525L25.2571 18.4832H32.0546L33.4577 23.6784ZM4.73484 20.1392V13.3824H7.58672C9.99832 13.3824 11.1363 14.5312 11.1363 16.7808C11.1363 19.2608 9.64641 20.1856 7.49836 20.1856H4.73484V20.1392ZM4.73484 9.84V4H7.67356C9.82008 4 10.7418 5.0096 10.7418 6.8976C10.7418 8.784 9.69363 9.84 7.71773 9.84H4.73484ZM0.0426563 23.6784H8.32863C12.9766 23.6784 15.827 21.928 15.827 17.104C15.827 14.0224 14.1177 11.9104 10.9596 11.5856V11.4496C13.7643 10.944 15.4324 9.3344 15.4324 6.2544C15.4324 2.2528 13.2402 0.4608 8.54953 0.4608H0V23.6816H0.0426563V23.6784Z" fill="black"/>
</svg>
