<svg width="339" height="25" viewBox="0 0 339 25" fill="none" xmlns="http://www.w3.org/2000/svg">
<path d="M17.6875 22.2812C15.9688 23.8542 13.7708 24.6406 11.0938 24.6406C7.78125 24.6406 5.17708 23.5781 3.28125 21.4531C1.38542 19.3177 0.4375 16.3906 0.4375 12.6719C0.4375 8.65104 1.51562 5.55208 3.67188 3.375C5.54688 1.47917 7.93229 0.53125 10.8281 0.53125C14.7031 0.53125 17.5365 1.80208 19.3281 4.34375C20.3177 5.77083 20.849 7.20312 20.9219 8.64062H16.1094C15.7969 7.53646 15.3958 6.70312 14.9062 6.14062C14.0312 5.14062 12.7344 4.64062 11.0156 4.64062C9.26562 4.64062 7.88542 5.34896 6.875 6.76562C5.86458 8.17188 5.35938 10.1667 5.35938 12.75C5.35938 15.3333 5.89062 17.2708 6.95312 18.5625C8.02604 19.8438 9.38542 20.4844 11.0312 20.4844C12.7188 20.4844 14.0052 19.9323 14.8906 18.8281C15.3802 18.2344 15.7865 17.3438 16.1094 16.1562H20.875C20.4583 18.6667 19.3958 20.7083 17.6875 22.2812ZM38.2969 24V13.7188H29.2969V24H24.5312V0.96875H29.2969V9.75H38.2969V0.96875H43.0781V24H38.2969ZM61.1719 19.2656H52.6875L51.0938 24H46.0625L54.2812 0.96875H59.7188L67.875 24H62.6562L61.1719 19.2656ZM59.8281 15.2969L56.9531 6.23438L53.9844 15.2969H59.8281ZM89.4375 24H84.625L75.2188 7.64062V24H70.7344V0.96875H75.7812L84.9531 17.0469V0.96875H89.4375V24ZM109.969 13.9375H98.7812V19.8594H111.531V24H94.0781V0.96875H110.969V5.04688H98.7812V9.9375H109.969V13.9375ZM115.281 0.96875H120.094V19.8594H131.5V24H115.281V0.96875ZM152.969 15.7188H148.078V24H143.297V0.96875H153.328C155.641 0.96875 157.484 1.5625 158.859 2.75C160.234 3.9375 160.922 5.77604 160.922 8.26562C160.922 10.9844 160.234 12.9062 158.859 14.0312C157.484 15.1562 155.521 15.7188 152.969 15.7188ZM155.219 10.9219C155.844 10.3698 156.156 9.49479 156.156 8.29688C156.156 7.09896 155.839 6.24479 155.203 5.73438C154.578 5.22396 153.698 4.96875 152.562 4.96875H148.078V11.75H152.562C153.698 11.75 154.583 11.474 155.219 10.9219ZM174.312 14.9688H169.344V24H164.641V0.96875H175.938C177.552 1 178.792 1.19792 179.656 1.5625C180.531 1.92708 181.271 2.46354 181.875 3.17188C182.375 3.75521 182.771 4.40104 183.062 5.10938C183.354 5.81771 183.5 6.625 183.5 7.53125C183.5 8.625 183.224 9.70312 182.672 10.7656C182.12 11.8177 181.208 12.5625 179.938 13C181 13.4271 181.75 14.0365 182.188 14.8281C182.635 15.6094 182.859 16.8073 182.859 18.4219V19.9688C182.859 21.0208 182.901 21.7344 182.984 22.1094C183.109 22.7031 183.401 23.1406 183.859 23.4219V24H178.562C178.417 23.4896 178.312 23.0781 178.25 22.7656C178.125 22.1198 178.057 21.4583 178.047 20.7812L178.016 18.6406C177.995 17.1719 177.724 16.1927 177.203 15.7031C176.693 15.2135 175.729 14.9688 174.312 14.9688ZM177.234 10.7812C178.193 10.3438 178.672 9.47917 178.672 8.1875C178.672 6.79167 178.208 5.85417 177.281 5.375C176.76 5.10417 175.979 4.96875 174.938 4.96875H169.344V11.1562H174.797C175.88 11.1562 176.693 11.0312 177.234 10.7812ZM203.688 13.9375H192.5V19.8594H205.25V24H187.797V0.96875H204.688V5.04688H192.5V9.9375H203.688V13.9375ZM207.297 12.9688H216.266V17.1875H207.297V12.9688ZM229.844 24.6406C226.552 24.6406 224.036 23.7448 222.297 21.9531C219.964 19.7552 218.797 16.5885 218.797 12.4531C218.797 8.23438 219.964 5.06771 222.297 2.95312C224.036 1.16146 226.552 0.265625 229.844 0.265625C233.135 0.265625 235.651 1.16146 237.391 2.95312C239.714 5.06771 240.875 8.23438 240.875 12.4531C240.875 16.5885 239.714 19.7552 237.391 21.9531C235.651 23.7448 233.135 24.6406 229.844 24.6406ZM234.391 18.4531C235.505 17.0469 236.062 15.0469 236.062 12.4531C236.062 9.86979 235.5 7.875 234.375 6.46875C233.26 5.05208 231.75 4.34375 229.844 4.34375C227.938 4.34375 226.417 5.04688 225.281 6.45312C224.146 7.85938 223.578 9.85938 223.578 12.4531C223.578 15.0469 224.146 17.0469 225.281 18.4531C226.417 19.8594 227.938 20.5625 229.844 20.5625C231.75 20.5625 233.266 19.8594 234.391 18.4531ZM266.969 0.96875H271.859L265.375 24H260.781L258 10.5312L257.188 6.07812L256.375 10.5312L253.594 24H249.125L242.594 0.96875H247.703L250.75 14.1562L251.406 17.8281L252.078 14.2344L254.672 0.96875H259.75L262.484 14.1562L263.188 17.8281L263.891 14.2969L266.969 0.96875ZM293.406 24H288.594L279.188 7.64062V24H274.703V0.96875H279.75L288.922 17.0469V0.96875H293.406V24ZM313.938 13.9375H302.75V19.8594H315.5V24H298.047V0.96875H314.938V5.04688H302.75V9.9375H313.938V13.9375ZM329.172 24H319.25V0.96875H329.172C330.599 0.989583 331.786 1.15625 332.734 1.46875C334.349 2 335.656 2.97396 336.656 4.39062C337.458 5.53646 338.005 6.77604 338.297 8.10938C338.589 9.44271 338.734 10.7135 338.734 11.9219C338.734 14.9844 338.12 17.5781 336.891 19.7031C335.224 22.5677 332.651 24 329.172 24ZM332.75 6.84375C332.01 5.59375 330.547 4.96875 328.359 4.96875H323.922V20H328.359C330.63 20 332.214 18.8802 333.109 16.6406C333.599 15.4115 333.844 13.9479 333.844 12.25C333.844 9.90625 333.479 8.10417 332.75 6.84375Z" fill="black"/>
</svg>
