<svg width="228" height="25" viewBox="0 0 228 25" fill="none" xmlns="http://www.w3.org/2000/svg">
<path fill-rule="evenodd" clip-rule="evenodd" d="M102.179 1.4141L107.916 15.2521L113.653 1.4141H117.749L108.357 24.1096L107.916 24.5516L107.474 24.1096L98.0814 1.4141H102.179ZM81.5661 1.4141C83.7729 1.4141 85.8655 2.56714 87.0186 4.25085L84.8132 6.45771H84.1187C83.6617 5.48056 82.656 4.88224 81.5661 4.88224C80.2687 4.88224 79.0525 5.94959 78.9804 7.30859C78.9278 8.33084 79.3968 8.96975 80.2431 9.51545C81.1542 10.1032 81.527 10.3483 82.7642 11.0278C84.1127 11.7689 87.5237 13.2226 87.5237 17.0485C87.5237 20.8203 84.3712 24.3291 80.3048 24.3291C79.7831 24.3291 78.8375 24.2704 78.131 24.1081C76.1391 23.6255 74.9304 22.8724 73.6241 21.3345L76.4608 18.4346L77.438 19.2539C77.8784 19.5997 78.8466 20.2957 79.7681 20.4205C81.6412 20.6745 82.898 19.4358 83.1415 18.2136C83.3355 17.2485 83.0904 15.8083 81.5345 15.0627C81.5345 15.0627 78.7293 13.5037 77.4996 12.7927C76.2473 12.0681 74.9154 10.0897 74.9154 7.71899C74.9154 5.9541 75.7242 4.24484 77.0276 3.05422C78.0348 2.13118 79.4163 1.4141 81.5661 1.4141ZM208.964 0.973633L223.652 15.661V1.85608L224.093 1.4141H226.993L227.435 1.85608V24.1081H226.741L212.306 9.6733V23.6676L211.864 24.1081H208.964L208.524 23.6676V1.4141L208.964 0.973633ZM165.658 1.4141V4.75596L165.216 5.19643H161.876V24.1081H158.094V5.19643H154.311V1.85608L154.753 1.4141H165.658ZM179.526 1.4141V4.75596L179.084 5.19643H175.744V24.1081H171.962V5.19643H168.179V1.85608L168.621 1.4141H179.526ZM4.28233 1.4141V20.3258H11.847V24.1081H0.5V1.85608L0.94047 1.4141H4.28233ZM25.715 1.4141C28.7245 1.4141 31.6106 2.60959 33.7386 4.73756C35.8666 6.86553 37.062 9.75169 37.062 12.7611C37.062 15.7705 35.8666 18.6567 33.7386 20.7846C31.6106 22.9126 28.7245 24.1081 25.715 24.1081C22.7056 24.1081 19.8195 22.9126 17.6915 20.7846C15.5635 18.6567 14.368 15.7705 14.368 12.7611C14.368 9.75169 15.5635 6.86553 17.6915 4.73756C19.8195 2.60959 22.7056 1.4141 25.715 1.4141ZM193.394 1.4141C196.404 1.4141 199.29 2.60959 201.418 4.73756C203.546 6.86553 204.741 9.75169 204.741 12.7611C204.741 15.7705 203.546 18.6567 201.418 20.7846C199.29 22.9126 196.404 24.1081 193.394 24.1081C190.385 24.1081 187.499 22.9126 185.371 20.7846C183.243 18.6567 182.047 15.7705 182.047 12.7611C182.047 9.75169 183.243 6.86553 185.371 4.73756C187.499 2.60959 190.385 1.4141 193.394 1.4141ZM45.446 1.4141L45.8865 1.85608V16.5434C45.8865 17.5466 46.285 18.5086 46.9943 19.2179C47.7036 19.9273 48.6657 20.3258 49.6688 20.3258C50.6719 20.3258 51.634 19.9273 52.3433 19.2179C53.0526 18.5086 53.4511 17.5466 53.4511 16.5434V1.85608L53.8931 1.4141H56.793L57.2335 1.85608V16.5434C57.2335 18.5497 56.4365 20.4738 55.0178 21.8925C53.5992 23.3111 51.6751 24.1081 49.6688 24.1081C47.6625 24.1081 45.7384 23.3111 44.3198 21.8925C42.9011 20.4738 42.1041 18.5497 42.1041 16.5434V1.85608L42.5461 1.4141H45.446ZM68.5805 1.4141V23.6676L68.1385 24.1081H64.7981V1.85608L65.2386 1.4141H68.5805ZM124.873 1.4141L125.314 1.85608V16.5434C125.314 17.5466 125.712 18.5086 126.422 19.2179C127.131 19.9273 128.093 20.3258 129.096 20.3258C130.099 20.3258 131.061 19.9273 131.771 19.2179C132.48 18.5086 132.879 17.5466 132.879 16.5434V1.85608L133.321 1.4141H136.219L136.661 1.85608V16.5434C136.661 18.5497 135.864 20.4738 134.445 21.8925C133.027 23.3111 131.103 24.1081 129.096 24.1081C127.09 24.1081 125.166 23.3111 123.747 21.8925C122.329 20.4738 121.532 18.5497 121.532 16.5434V1.85608L121.974 1.4141H124.873ZM148.008 1.4141V23.6676L147.566 24.1081H144.226V1.85608L144.666 1.4141H148.008ZM25.7135 5.19794C24.72 5.19804 23.7363 5.39382 22.8184 5.77411C21.9006 6.1544 21.0666 6.71174 20.3642 7.41433C18.9456 8.83326 18.1487 10.7576 18.1489 12.7641C18.1491 14.7706 18.9463 16.6948 20.3653 18.1134C21.7842 19.5321 23.7086 20.329 25.715 20.3288C27.7215 20.3288 29.6458 19.5317 31.0646 18.1129C32.4834 16.6941 33.2805 14.7698 33.2805 12.7634C33.2805 10.7569 32.4834 8.83259 31.0646 7.4138C29.6458 5.99501 27.7215 5.19794 25.715 5.19794H25.7135ZM193.394 5.19794C191.388 5.19794 189.464 5.99501 188.045 7.4138C186.626 8.83259 185.829 10.7569 185.829 12.7634C185.829 14.7698 186.626 16.6941 188.045 18.1129C189.464 19.5317 191.388 20.3288 193.394 20.3288C195.401 20.3288 197.325 19.5317 198.744 18.1129C200.163 16.6941 200.96 14.7698 200.96 12.7634C200.96 10.7569 200.163 8.83259 198.744 7.4138C197.325 5.99501 195.401 5.19794 193.394 5.19794Z" fill="#19110B"/>
</svg>
