<svg width="260" height="26" viewBox="0 0 260 26" fill="none" xmlns="http://www.w3.org/2000/svg">
<g clip-path="url(#clip0_1712_842)">
<path d="M13.2257 10.6825C7.0726 9.06996 5.99757 8.8295 5.99757 6.9765C5.99757 5.1235 7.97788 4.21821 9.66114 4.21821C12.2072 4.21821 14.2866 4.9679 14.4705 7.88178H19.6475C19.6475 2.22376 14.9797 0.0595703 9.9016 0.0595703C5.5025 0.0595703 0.820488 2.45008 0.820488 7.41499C0.820488 11.9838 4.46991 13.3701 8.07689 14.3319C11.6839 15.2938 15.2909 15.7464 15.2909 18.3491C15.2909 20.9518 12.4619 21.3761 10.5664 21.3761C7.73741 21.3761 5.17716 20.1172 5.17716 16.878H7.53896e-05C-0.0847949 22.8472 4.97913 25.5206 10.3401 25.5206C16.9458 25.5206 20.4397 22.1824 20.4397 17.7126C20.4397 12.2102 15.008 11.0927 13.2257 10.6825Z" fill="black"/>
<path d="M45.929 0.625488H51.2616V24.955H45.929V0.625488Z" fill="black"/>
<path d="M70.7959 16.9347L60.5832 0.625488H55.2788V24.9267H60.272V8.65987H60.3569L70.4706 24.9267H75.8033V5.12361H82.8758V24.9267H88.2226V5.12361H95.5214V0.625488H70.7959V16.9347Z" fill="black"/>
<path d="M29.5773 0.625488L20.3406 24.9267H25.7723L27.6677 19.5091H36.7771L38.616 24.9267H44.1325L35.0656 0.625488H29.5773ZM29.0681 15.5344L32.2224 6.60884H32.3073L35.3626 15.5344H29.0681Z" fill="black"/>
<path d="M203.689 14.4876H215.471V10.329H203.689V5.10947H216.419V0.625488H198.299V24.9267H216.688V20.4427H203.689V14.4876Z" fill="black"/>
<path d="M235.345 0.625488V16.9347L225.133 0.625488H219.842V24.9267H224.906V8.65987L235.006 24.9267H240.353V5.12361H247.425V24.9267H252.758V5.12361H260.042V0.625488H235.345Z" fill="black"/>
<path d="M190.59 13.5114V13.4266C191.807 12.9667 192.841 12.1229 193.535 11.0228C194.229 9.9227 194.546 8.62633 194.438 7.33004C194.443 6.41655 194.261 5.51166 193.903 4.67135C193.545 3.83104 193.018 3.0732 192.355 2.44472C191.692 1.81624 190.907 1.3305 190.049 1.01754C189.19 0.704587 188.277 0.571084 187.365 0.625291H174.267V24.9265H179.6V15.4351H184.946C187.634 15.4351 188.61 16.5526 189.006 19.0987C189.064 21.0674 189.349 23.0229 189.855 24.9265H195.202C194.24 23.512 194.282 20.683 194.183 19.1836C193.971 16.7365 193.221 14.1904 190.59 13.5114ZM185.427 11.6301H179.642V4.78393H185.484C187.874 4.78393 189.162 5.80238 189.162 8.15045C189.162 10.4985 187.79 11.616 185.427 11.616V11.6301Z" fill="black"/>
<path d="M164.959 15.7324C164.959 19.3394 163.743 21.0085 159.938 21.0085C155.61 21.0085 154.945 18.3917 154.945 15.7324V0.625488H149.598V15.7324C149.598 22.3381 153.403 25.4925 159.952 25.4925C166.501 25.4925 170.32 22.2957 170.32 15.7324V0.625488H164.988V15.7324H164.959Z" fill="black"/>
<path d="M134.194 0.625488L124.957 24.9267H130.375L132.27 19.5091H141.366L143.19 24.9267H148.735L139.668 0.625488H134.194ZM133.671 15.5344L136.839 6.60884H136.924L140.036 15.5344H133.671Z" fill="black"/>
<path d="M111.746 0.625488H106.343V24.9267H123.529V20.4427H111.746V0.625488Z" fill="black"/>
</g>
<defs>
<clipPath id="clip0_1712_842">
<rect width="260" height="25.4611" fill="white" transform="translate(0 0.0595703)"/>
</clipPath>
</defs>
</svg>
